<svg id="svg" version="1.1" xmlns="http://www.w3.org/2000/svg" xmlns:xlink="http://www.w3.org/1999/xlink" width="400" height="400" viewBox="0, 0, 400,400"><g id="svgg"><path id="path0" d="M183.200 51.596 C 181.330 51.783,178.990 52.119,178.000 52.345 C 177.010 52.570,173.890 53.039,171.067 53.386 C 168.244 53.733,165.303 54.280,164.532 54.603 C 163.760 54.925,161.930 55.394,160.464 55.645 C 158.999 55.896,157.342 56.334,156.782 56.619 C 156.223 56.903,154.628 57.430,153.240 57.790 C 151.851 58.149,150.062 58.794,149.264 59.222 C 148.465 59.650,147.539 60.000,147.206 60.000 C 146.873 60.000,145.520 60.521,144.200 61.159 C 142.880 61.796,141.350 62.527,140.800 62.782 C 140.250 63.038,138.777 63.821,137.526 64.523 C 136.275 65.225,134.524 66.207,133.635 66.704 C 132.746 67.201,131.249 68.151,130.309 68.817 C 129.369 69.482,128.150 70.328,127.600 70.697 C 118.871 76.554,113.261 84.159,120.118 80.840 C 121.072 80.378,122.201 79.998,122.626 79.996 C 123.052 79.994,124.336 79.556,125.481 79.024 C 126.625 78.491,128.425 77.928,129.481 77.773 C 130.536 77.618,132.447 77.159,133.726 76.754 C 142.419 73.999,167.168 74.013,175.800 76.777 C 177.120 77.200,178.995 77.668,179.966 77.819 C 180.937 77.969,182.539 78.522,183.525 79.046 C 184.512 79.571,185.615 80.000,185.978 80.000 C 186.969 80.000,194.799 84.099,196.963 85.751 C 198.007 86.548,198.994 87.200,199.157 87.200 C 199.795 87.200,200.777 89.922,200.279 90.309 C 200.015 90.513,192.870 90.884,184.400 91.134 C 173.868 91.444,168.052 91.780,166.000 92.195 C 164.350 92.529,160.210 93.081,156.800 93.420 C 153.390 93.760,149.610 94.288,148.400 94.595 C 147.190 94.901,143.975 95.437,141.255 95.786 C 138.535 96.135,136.000 96.586,135.621 96.789 C 135.243 96.991,133.182 97.439,131.043 97.783 C 128.903 98.127,126.517 98.674,125.741 98.999 C 124.964 99.324,123.130 99.794,121.664 100.045 C 120.199 100.296,118.460 100.781,117.800 101.121 C 117.140 101.462,115.520 102.058,114.200 102.445 C 108.891 104.001,106.914 104.808,99.600 108.405 C 91.462 112.407,89.538 114.518,88.969 120.068 C 88.559 124.078,89.173 124.238,92.988 121.114 C 96.448 118.281,98.747 116.704,100.800 115.755 C 101.570 115.400,102.661 114.781,103.224 114.381 C 103.788 113.981,104.778 113.528,105.424 113.375 C 106.071 113.222,107.190 112.743,107.910 112.310 C 108.631 111.877,110.071 111.282,111.110 110.989 C 112.150 110.695,113.990 110.108,115.200 109.683 C 120.205 107.924,123.914 106.840,125.776 106.592 C 126.864 106.447,128.609 105.990,129.656 105.578 C 130.703 105.165,133.114 104.634,135.013 104.398 C 136.912 104.162,139.936 103.632,141.733 103.220 C 143.530 102.808,146.530 102.351,148.400 102.204 C 150.270 102.058,153.543 101.597,155.674 101.180 C 157.805 100.763,162.755 100.237,166.674 100.011 C 170.593 99.785,176.320 99.377,179.400 99.104 C 186.603 98.465,208.714 98.464,215.200 99.102 C 217.950 99.373,223.426 99.781,227.369 100.010 C 231.313 100.240,236.173 100.771,238.169 101.191 C 240.166 101.612,243.240 102.071,245.000 102.211 C 246.760 102.351,249.730 102.820,251.600 103.253 C 253.470 103.686,256.422 104.220,258.161 104.440 C 259.900 104.660,261.937 105.097,262.689 105.412 C 263.441 105.726,265.529 106.241,267.328 106.556 C 269.128 106.871,271.500 107.483,272.600 107.915 C 273.700 108.348,275.410 108.836,276.400 108.998 C 277.390 109.161,278.658 109.529,279.218 109.815 C 279.777 110.101,281.375 110.631,282.769 110.992 C 284.162 111.353,285.684 111.893,286.151 112.192 C 286.618 112.490,287.810 112.944,288.800 113.200 C 289.790 113.455,291.155 113.986,291.833 114.379 C 292.510 114.772,293.770 115.324,294.633 115.605 C 295.495 115.886,296.629 116.450,297.154 116.858 C 297.679 117.266,298.284 117.600,298.500 117.600 C 299.019 117.600,304.155 121.023,304.797 121.796 C 305.072 122.128,305.487 122.400,305.717 122.400 C 305.948 122.400,306.455 122.688,306.843 123.039 C 307.232 123.391,307.741 123.560,307.975 123.416 C 308.496 123.093,308.541 120.535,308.031 120.219 C 307.828 120.094,307.274 118.825,306.800 117.400 C 306.326 115.975,305.757 114.697,305.536 114.560 C 305.315 114.424,304.778 113.567,304.342 112.656 C 303.480 110.851,301.846 107.996,300.626 106.163 C 300.201 105.523,299.077 103.830,298.128 102.400 C 296.540 100.005,294.345 97.033,291.668 93.651 C 287.509 88.399,279.680 80.732,273.585 75.941 C 268.956 72.302,268.129 71.707,265.600 70.196 C 264.170 69.342,262.640 68.347,262.200 67.986 C 261.760 67.625,260.680 66.970,259.800 66.532 C 258.920 66.093,256.940 65.099,255.400 64.322 C 249.832 61.513,246.529 60.000,245.967 60.000 C 245.652 60.000,244.585 59.574,243.597 59.054 C 242.609 58.534,241.086 57.979,240.214 57.820 C 239.341 57.661,238.147 57.283,237.560 56.979 C 236.972 56.675,234.856 56.070,232.857 55.634 C 230.859 55.197,228.862 54.647,228.420 54.411 C 227.979 54.174,225.588 53.722,223.109 53.406 C 220.629 53.089,217.250 52.545,215.600 52.195 C 212.096 51.453,188.940 51.025,183.200 51.596 M182.200 108.034 C 179.780 108.209,173.300 108.629,167.800 108.966 C 162.300 109.304,156.284 109.851,154.431 110.183 C 152.579 110.515,149.159 110.979,146.831 111.214 C 144.504 111.449,141.250 111.981,139.600 112.396 C 137.950 112.812,135.430 113.275,134.000 113.427 C 132.570 113.578,130.050 114.117,128.400 114.624 C 126.750 115.131,124.510 115.673,123.422 115.830 C 122.333 115.986,120.713 116.431,119.822 116.817 C 118.930 117.204,117.390 117.650,116.400 117.809 C 115.410 117.967,113.751 118.525,112.713 119.048 C 111.676 119.572,110.602 120.000,110.327 120.000 C 109.231 120.000,103.257 123.253,102.649 124.181 C 101.452 126.009,102.103 129.721,103.915 131.402 C 105.772 133.123,106.350 132.727,106.749 129.460 C 107.185 125.881,110.384 125.109,112.963 127.959 C 113.958 129.058,115.477 129.027,118.312 127.850 C 119.570 127.327,121.458 126.775,122.508 126.624 C 124.710 126.306,125.414 125.512,125.835 122.873 C 126.312 119.884,132.188 118.207,133.844 120.587 C 134.260 121.185,135.060 122.220,135.623 122.888 L 136.646 124.101 139.023 123.409 C 140.330 123.028,143.812 122.474,146.759 122.179 C 152.902 121.563,152.754 121.645,153.162 118.638 C 153.565 115.670,153.477 115.723,158.742 115.236 C 164.096 114.741,164.405 114.848,165.837 117.673 L 166.873 119.718 172.137 119.438 C 188.810 118.549,189.779 118.360,190.445 115.868 C 191.036 113.660,191.224 113.600,197.569 113.600 C 203.915 113.600,204.400 113.748,204.400 115.680 C 204.400 118.016,205.390 118.398,211.500 118.422 C 214.525 118.433,218.440 118.610,220.200 118.814 C 221.960 119.018,226.100 119.460,229.400 119.795 C 232.700 120.130,236.480 120.749,237.800 121.171 C 239.120 121.593,241.457 122.145,242.993 122.397 C 244.528 122.649,245.982 123.019,246.222 123.218 C 246.462 123.417,247.789 123.870,249.172 124.224 C 250.555 124.579,252.504 125.303,253.503 125.834 C 254.502 126.365,255.628 126.800,256.006 126.800 C 256.383 126.800,257.121 127.127,257.646 127.527 C 258.171 127.927,259.230 128.496,260.000 128.793 C 260.770 129.089,261.670 129.550,262.000 129.818 C 262.330 130.085,263.199 130.607,263.931 130.978 C 265.409 131.727,267.974 133.637,269.783 135.335 C 271.162 136.629,270.856 137.712,269.051 137.927 C 267.568 138.104,266.638 139.646,266.930 141.443 C 267.285 143.632,267.795 144.000,270.475 144.000 C 274.407 144.000,275.612 145.312,273.063 146.816 C 270.666 148.230,270.800 143.812,270.800 221.250 L 270.800 292.862 271.928 293.990 C 274.855 296.917,287.564 295.851,288.810 292.574 C 289.058 291.921,289.200 264.883,289.200 218.207 L 289.200 144.867 290.227 144.119 C 291.618 143.105,291.970 140.551,291.011 138.424 C 290.234 136.702,290.513 135.150,292.091 132.400 C 294.924 127.465,294.448 124.599,290.498 122.810 C 289.454 122.337,287.880 121.615,287.000 121.206 C 285.023 120.286,280.984 118.938,277.800 118.134 C 276.480 117.801,274.410 117.188,273.200 116.771 C 271.990 116.355,269.762 115.824,268.249 115.591 C 266.737 115.359,264.883 114.911,264.130 114.597 C 263.377 114.282,261.195 113.832,259.281 113.596 C 257.366 113.360,254.360 112.817,252.600 112.388 C 250.840 111.960,247.510 111.421,245.200 111.190 C 242.890 110.959,239.470 110.503,237.600 110.176 C 235.730 109.849,230.060 109.313,225.000 108.985 C 219.940 108.657,213.460 108.211,210.600 107.995 C 204.618 107.543,188.664 107.564,182.200 108.034 M147.214 130.374 C 145.796 133.023,146.952 135.199,149.780 135.202 C 152.396 135.205,154.800 135.880,154.800 136.611 C 154.800 136.926,154.125 137.530,153.300 137.954 C 150.117 139.588,150.400 131.549,150.400 220.277 L 150.400 299.430 151.500 300.743 C 153.424 303.040,165.144 303.111,167.685 300.841 L 168.899 299.756 168.949 218.304 L 169.000 136.853 170.200 135.600 C 171.542 134.199,171.872 131.492,170.851 130.261 C 169.938 129.162,147.807 129.267,147.214 130.374 M224.790 130.626 C 223.580 133.808,224.516 135.056,228.294 135.303 C 232.495 135.578,233.513 136.616,230.893 137.953 C 227.500 139.683,227.816 131.595,227.679 220.409 L 227.558 299.018 228.933 300.609 L 230.309 302.200 236.854 302.200 C 244.025 302.200,245.504 301.756,246.428 299.327 C 246.653 298.735,246.800 266.345,246.800 217.334 L 246.800 136.321 248.052 135.152 C 249.158 134.118,249.278 133.797,249.087 132.376 C 248.701 129.493,249.185 129.600,236.541 129.600 L 225.180 129.600 224.790 130.626 M104.610 139.580 C 103.041 142.616,104.341 144.400,108.124 144.400 C 111.386 144.400,112.737 145.228,111.232 146.306 C 110.699 146.688,109.574 147.705,108.732 148.567 L 107.200 150.133 107.200 221.460 L 107.200 292.787 108.366 294.094 L 109.533 295.400 116.344 295.526 L 123.155 295.652 124.677 294.257 L 126.200 292.862 126.303 219.056 L 126.406 145.250 127.603 144.398 C 128.994 143.408,129.280 140.863,128.177 139.289 C 127.559 138.406,127.474 138.400,116.388 138.400 L 105.221 138.400 104.610 139.580 M184.300 236.676 C 183.024 237.009,183.502 238.851,185.604 241.700 L 187.596 244.400 191.624 244.400 C 198.634 244.400,198.776 245.138,192.546 249.200 C 186.327 253.255,186.800 251.643,186.800 268.766 L 186.800 283.172 185.559 284.442 C 184.362 285.666,184.323 285.815,184.467 288.649 C 184.692 293.111,183.794 292.836,198.185 292.844 L 210.504 292.850 211.688 291.725 C 213.487 290.015,213.217 286.140,211.181 284.441 L 209.800 283.288 209.688 264.380 C 209.566 243.550,209.633 242.916,212.279 239.978 C 213.357 238.782,213.444 237.902,212.571 237.029 C 211.965 236.422,186.488 236.104,184.300 236.676 M299.200 296.122 C 296.097 298.368,290.864 300.624,285.400 302.072 C 284.520 302.305,282.360 302.913,280.600 303.423 C 278.840 303.933,276.410 304.473,275.200 304.622 C 273.990 304.772,271.920 305.234,270.600 305.649 C 269.280 306.064,266.570 306.578,264.578 306.791 C 262.586 307.004,259.436 307.533,257.578 307.966 C 255.720 308.400,252.670 308.872,250.800 309.015 C 248.930 309.158,244.882 309.624,241.805 310.051 C 236.482 310.788,221.815 311.652,204.800 312.231 C 193.366 312.621,161.550 311.155,156.200 309.992 C 155.320 309.801,152.260 309.445,149.400 309.202 C 146.540 308.958,142.846 308.415,141.190 307.994 C 139.535 307.573,136.613 307.051,134.696 306.833 C 132.779 306.615,129.994 306.085,128.506 305.655 C 127.018 305.225,124.601 304.674,123.136 304.431 C 121.670 304.188,119.869 303.737,119.133 303.430 C 118.397 303.122,116.635 302.660,115.219 302.403 C 113.802 302.147,111.995 301.606,111.203 301.202 C 110.411 300.797,109.051 300.342,108.181 300.189 C 107.312 300.036,106.045 299.595,105.367 299.209 C 104.690 298.823,103.450 298.281,102.613 298.004 C 101.776 297.728,100.454 297.070,99.675 296.541 C 95.928 293.998,95.200 294.771,95.200 301.289 C 95.200 306.157,95.794 308.800,96.887 308.800 C 97.177 308.800,98.041 309.225,98.807 309.744 C 99.573 310.262,100.650 310.828,101.200 311.000 C 101.750 311.172,102.827 311.738,103.593 312.256 C 104.359 312.775,105.264 313.200,105.603 313.200 C 105.943 313.200,107.296 313.734,108.610 314.387 C 109.925 315.041,111.360 315.584,111.800 315.596 C 112.240 315.608,113.388 315.975,114.350 316.412 C 115.313 316.848,117.255 317.474,118.666 317.801 C 120.077 318.128,121.742 318.660,122.366 318.982 C 122.989 319.305,124.737 319.763,126.250 320.001 C 127.762 320.239,129.903 320.767,131.007 321.176 C 132.111 321.585,134.091 322.045,135.407 322.200 C 136.723 322.354,139.150 322.828,140.800 323.252 C 142.450 323.677,145.690 324.211,148.000 324.439 C 150.310 324.667,153.190 325.113,154.400 325.429 C 155.610 325.745,158.940 326.193,161.800 326.423 C 164.660 326.654,169.879 327.111,173.398 327.440 C 190.094 329.002,207.926 328.990,221.800 327.408 C 228.617 326.631,232.155 326.623,232.785 327.382 C 233.529 328.279,232.991 328.699,230.700 329.011 C 229.545 329.168,227.716 329.644,226.637 330.068 C 225.557 330.492,223.242 331.018,221.492 331.237 C 219.743 331.457,216.846 331.978,215.056 332.396 C 213.209 332.827,208.770 333.335,204.800 333.569 C 200.950 333.796,194.319 334.200,190.065 334.465 C 179.908 335.100,153.186 333.748,145.800 332.226 C 144.260 331.909,141.231 331.456,139.069 331.219 C 136.908 330.983,133.758 330.444,132.069 330.021 C 130.381 329.598,128.020 329.128,126.823 328.978 C 125.625 328.827,123.679 328.371,122.498 327.965 C 121.318 327.559,119.245 327.026,117.893 326.781 C 116.540 326.535,114.938 326.078,114.333 325.765 C 113.727 325.452,112.035 324.918,110.573 324.579 C 109.111 324.240,107.529 323.724,107.058 323.431 C 106.586 323.139,105.354 322.697,104.320 322.449 C 103.285 322.201,101.594 321.549,100.560 320.999 C 99.526 320.450,98.372 320.000,97.994 320.000 C 97.617 320.000,96.879 319.673,96.354 319.273 C 95.829 318.873,94.770 318.302,94.000 318.003 C 93.230 317.705,92.122 317.132,91.538 316.730 C 90.954 316.329,90.310 316.000,90.107 316.000 C 89.748 316.000,87.483 314.623,84.200 312.411 C 80.424 309.867,79.810 310.667,80.084 317.772 C 80.290 323.140,80.422 323.485,83.400 326.466 C 84.706 327.774,88.288 330.306,90.200 331.273 C 90.860 331.606,91.940 332.165,92.600 332.513 C 96.016 334.318,99.309 335.671,104.200 337.279 C 105.520 337.713,107.770 338.492,109.200 339.009 C 110.630 339.527,112.584 340.057,113.542 340.187 C 114.500 340.317,115.818 340.699,116.471 341.036 C 117.123 341.374,119.219 341.916,121.129 342.242 C 123.038 342.567,125.410 343.090,126.400 343.404 C 127.390 343.717,129.820 344.171,131.800 344.411 C 133.780 344.651,136.750 345.189,138.400 345.608 C 140.050 346.026,143.740 346.553,146.600 346.779 C 149.460 347.004,153.240 347.458,155.000 347.786 C 168.850 350.374,230.033 350.384,244.400 347.802 C 246.270 347.466,250.050 347.000,252.800 346.768 C 255.550 346.536,259.690 345.926,262.000 345.413 C 264.310 344.900,267.329 344.363,268.709 344.219 C 270.089 344.076,271.912 343.713,272.761 343.414 C 273.610 343.114,275.716 342.655,277.441 342.394 C 279.166 342.132,281.413 341.589,282.434 341.187 C 283.454 340.784,285.432 340.248,286.828 339.995 C 288.224 339.742,289.832 339.294,290.401 339.000 C 290.970 338.705,292.575 338.169,293.969 337.808 C 295.362 337.447,296.884 336.907,297.351 336.608 C 297.818 336.310,299.010 335.854,300.000 335.596 C 300.990 335.338,302.340 334.805,303.000 334.412 C 303.660 334.019,304.920 333.467,305.800 333.185 C 306.680 332.904,307.850 332.367,308.400 331.992 C 308.950 331.617,310.700 330.561,312.289 329.644 C 319.082 325.725,320.051 323.904,319.958 315.235 C 319.855 305.620,319.823 305.444,317.910 303.929 L 316.304 302.656 309.905 302.408 C 302.583 302.124,302.400 302.035,302.400 298.750 C 302.400 294.765,301.780 294.256,299.200 296.122 " stroke="none" fill="#f8fafb" fill-rule="evenodd"></path><path id="path1" d="M0.000 200.000 L 0.000 400.000 200.000 400.000 L 400.000 400.000 400.000 200.000 L 400.000 0.000 200.000 0.000 L 0.000 0.000 0.000 200.000 M217.442 50.370 C 220.080 50.589,221.841 50.940,222.514 51.380 C 223.156 51.801,224.995 52.192,227.405 52.420 C 229.831 52.650,231.811 53.073,232.733 53.558 C 233.540 53.983,235.402 54.511,236.872 54.732 C 238.341 54.953,240.051 55.493,240.672 55.931 C 241.292 56.370,242.630 56.842,243.644 56.980 C 244.658 57.119,246.088 57.675,246.822 58.216 C 247.555 58.757,248.647 59.200,249.247 59.200 C 249.847 59.200,250.847 59.616,251.469 60.124 C 252.091 60.632,253.346 61.264,254.259 61.528 C 255.171 61.792,256.018 62.271,256.142 62.594 C 256.266 62.916,257.191 63.388,258.197 63.641 C 259.203 63.894,260.196 64.418,260.403 64.805 C 260.610 65.192,261.279 65.633,261.889 65.785 C 262.500 65.938,263.573 66.498,264.273 67.031 C 264.974 67.564,265.707 68.000,265.904 68.000 C 266.100 68.000,266.683 68.450,267.200 69.000 C 267.717 69.550,268.301 70.000,268.498 70.000 C 269.034 70.000,273.549 73.300,275.567 75.166 C 276.538 76.065,277.466 76.800,277.628 76.800 C 278.087 76.800,290.000 88.433,290.000 88.881 C 290.000 89.100,290.495 89.774,291.100 90.379 C 291.705 90.985,292.708 92.092,293.330 92.840 C 293.951 93.588,294.912 94.740,295.465 95.400 C 297.298 97.588,298.800 99.705,298.800 100.100 C 298.800 100.315,299.262 101.055,299.828 101.745 C 302.015 104.416,303.200 106.131,303.200 106.624 C 303.200 106.907,303.624 107.647,304.142 108.269 C 304.660 108.891,305.304 110.074,305.572 110.897 C 305.840 111.720,306.329 112.544,306.657 112.728 C 306.985 112.912,307.429 113.858,307.643 114.831 C 307.857 115.804,308.288 116.795,308.600 117.033 C 310.168 118.226,310.570 123.430,309.200 124.800 C 308.232 125.768,307.549 125.801,305.918 124.957 C 304.492 124.220,304.373 124.134,302.152 122.220 C 301.245 121.439,300.371 120.800,300.209 120.800 C 300.048 120.800,299.381 120.350,298.727 119.800 C 298.073 119.250,297.227 118.800,296.847 118.800 C 296.467 118.800,295.539 118.346,294.787 117.790 C 294.034 117.235,292.744 116.673,291.920 116.541 C 291.096 116.409,289.842 115.873,289.133 115.351 C 288.424 114.828,287.366 114.400,286.782 114.400 C 286.197 114.400,284.898 113.963,283.894 113.430 C 282.891 112.896,281.199 112.337,280.135 112.187 C 279.071 112.037,277.570 111.552,276.800 111.109 C 276.030 110.666,274.140 110.145,272.600 109.951 C 270.889 109.736,269.378 109.287,268.714 108.798 C 267.940 108.227,266.540 107.884,263.837 107.604 C 261.614 107.373,259.415 106.893,258.523 106.443 C 257.465 105.910,255.717 105.595,252.800 105.411 C 249.786 105.221,248.156 104.919,247.026 104.341 C 245.731 103.678,244.230 103.476,238.572 103.199 C 232.723 102.912,231.370 102.722,229.546 101.931 L 227.400 101.000 197.000 101.014 C 170.148 101.026,166.460 101.101,165.400 101.657 C 163.642 102.578,162.142 102.790,154.525 103.189 C 149.500 103.452,147.397 103.714,146.711 104.164 C 145.644 104.863,141.268 105.580,137.994 105.592 C 136.542 105.597,135.262 105.882,134.248 106.425 C 133.306 106.931,131.309 107.407,129.100 107.654 C 126.690 107.923,125.144 108.310,124.446 108.820 C 123.846 109.257,122.375 109.691,121.000 109.837 C 119.510 109.995,118.069 110.442,117.200 111.016 C 116.430 111.525,114.900 112.070,113.800 112.227 C 112.700 112.384,111.384 112.837,110.876 113.233 C 110.367 113.629,108.988 114.153,107.810 114.398 C 106.633 114.642,105.573 115.093,105.456 115.399 C 105.338 115.705,104.468 116.176,103.521 116.447 C 102.575 116.717,101.528 117.166,101.196 117.444 C 99.998 118.448,97.772 119.983,96.400 120.753 C 95.630 121.184,94.014 122.470,92.810 123.611 C 90.428 125.865,87.792 126.234,86.469 124.497 C 85.789 123.606,86.081 120.616,86.939 119.667 C 87.288 119.282,87.698 117.904,87.851 116.606 C 88.080 114.659,88.363 114.011,89.464 112.909 C 90.199 112.174,90.800 111.435,90.800 111.266 C 90.800 111.098,91.565 110.551,92.500 110.052 C 93.435 109.553,94.830 108.808,95.600 108.398 C 96.370 107.987,97.270 107.389,97.600 107.068 C 97.930 106.747,99.010 106.255,100.000 105.974 C 100.990 105.694,102.164 105.141,102.610 104.747 C 103.055 104.353,104.379 103.825,105.552 103.573 C 106.725 103.321,108.012 102.788,108.413 102.387 C 108.814 101.986,110.010 101.533,111.071 101.382 C 112.132 101.230,113.545 100.777,114.212 100.375 C 114.879 99.972,116.649 99.448,118.146 99.209 C 119.643 98.969,121.349 98.418,121.938 97.983 C 122.698 97.421,124.049 97.093,126.604 96.852 C 129.022 96.623,130.659 96.242,131.600 95.689 C 132.648 95.073,134.042 94.797,137.142 94.592 C 139.775 94.418,141.895 94.048,142.961 93.576 C 144.170 93.041,146.318 92.730,150.668 92.460 C 154.861 92.199,156.988 91.899,157.649 91.474 C 158.963 90.629,160.921 90.402,170.600 89.972 C 175.220 89.766,180.350 89.420,182.000 89.202 C 183.650 88.984,187.655 88.693,190.900 88.554 C 196.860 88.298,197.617 88.101,195.800 87.273 C 195.250 87.022,194.800 86.658,194.800 86.463 C 194.800 86.268,194.012 85.808,193.049 85.440 C 192.086 85.072,190.978 84.418,190.587 83.986 C 190.196 83.554,189.378 83.200,188.769 83.200 C 188.160 83.200,187.147 82.767,186.518 82.238 C 185.825 81.655,184.590 81.167,183.387 81.002 C 182.294 80.851,180.917 80.388,180.326 79.971 C 179.639 79.487,178.026 79.075,175.849 78.828 C 173.949 78.612,171.598 78.050,170.523 77.555 C 167.577 76.198,142.074 76.200,139.117 77.558 C 137.903 78.115,136.055 78.504,133.917 78.651 C 131.541 78.815,130.282 79.104,129.478 79.668 C 128.861 80.102,127.241 80.662,125.878 80.914 C 124.515 81.165,122.790 81.782,122.044 82.285 C 121.045 82.959,120.117 83.200,118.518 83.200 C 112.333 83.200,113.879 78.250,121.755 72.831 C 122.717 72.169,123.610 71.352,123.739 71.014 C 123.869 70.676,124.244 70.400,124.572 70.400 C 124.900 70.400,125.532 70.010,125.976 69.533 C 126.868 68.576,129.046 67.170,131.196 66.163 C 131.965 65.803,132.991 65.079,133.477 64.554 C 133.964 64.029,134.717 63.600,135.150 63.600 C 135.584 63.600,136.449 63.170,137.073 62.645 C 137.697 62.120,138.902 61.499,139.751 61.265 C 140.600 61.030,141.620 60.543,142.019 60.183 C 142.417 59.823,143.488 59.360,144.399 59.156 C 145.309 58.951,146.543 58.423,147.139 57.982 C 147.736 57.541,149.142 57.035,150.263 56.857 C 151.385 56.680,152.775 56.163,153.354 55.708 C 154.067 55.147,155.305 54.790,157.204 54.600 C 158.744 54.445,160.110 54.146,160.240 53.935 C 160.698 53.194,162.635 52.717,166.442 52.407 C 169.012 52.198,170.642 51.860,171.366 51.385 C 173.245 50.155,206.111 49.430,217.442 50.370 M220.893 106.408 C 222.815 106.631,224.885 107.013,225.493 107.255 C 226.102 107.498,230.203 107.829,234.607 107.992 C 241.431 108.245,242.849 108.407,244.207 109.088 C 245.401 109.688,246.989 109.953,250.553 110.149 C 254.128 110.345,255.764 110.619,257.153 111.255 C 258.298 111.779,260.368 112.218,262.600 112.411 C 264.682 112.590,266.959 113.056,268.000 113.515 C 268.990 113.951,270.970 114.431,272.400 114.580 C 273.847 114.732,275.620 115.215,276.397 115.670 C 277.166 116.120,278.964 116.653,280.393 116.856 C 282.033 117.088,283.518 117.588,284.417 118.212 C 285.201 118.755,286.405 119.200,287.091 119.200 C 287.813 119.200,288.815 119.596,289.469 120.139 C 290.091 120.656,291.119 121.205,291.752 121.360 C 295.430 122.259,297.540 126.983,295.400 129.527 C 294.850 130.181,294.400 131.150,294.400 131.680 C 294.400 132.211,293.950 133.255,293.400 134.000 C 292.192 135.637,292.130 136.791,293.200 137.707 C 294.756 139.040,294.346 143.324,292.500 145.015 L 291.000 146.389 290.800 219.695 C 290.573 302.948,290.891 295.767,287.400 296.507 C 284.043 297.217,271.139 296.693,270.643 295.826 C 270.399 295.400,269.795 294.659,269.300 294.180 L 268.400 293.308 268.400 221.212 L 268.400 149.115 269.400 147.927 C 270.861 146.191,270.709 145.600,268.800 145.600 C 265.531 145.600,263.931 139.371,266.651 137.231 C 268.090 136.099,267.095 135.027,261.852 132.067 C 260.944 131.553,259.930 130.898,259.600 130.611 C 259.270 130.324,258.429 129.968,257.732 129.820 C 257.034 129.672,255.990 129.111,255.411 128.575 C 254.736 127.950,253.884 127.600,253.033 127.600 C 252.304 127.600,251.250 127.240,250.691 126.800 C 250.132 126.361,248.281 125.734,246.578 125.408 C 244.874 125.082,243.162 124.527,242.772 124.175 C 242.293 123.741,240.780 123.423,238.092 123.189 C 235.272 122.944,233.714 122.604,232.719 122.017 C 231.409 121.245,230.448 121.171,218.026 120.895 C 203.469 120.572,203.600 120.597,203.600 118.124 C 203.600 116.024,202.415 115.564,197.327 115.687 L 192.679 115.800 192.127 117.400 C 191.012 120.631,191.274 120.557,179.410 120.948 C 165.426 121.410,163.600 121.069,163.600 118.000 L 163.600 116.800 159.414 116.800 C 154.692 116.800,154.400 116.980,154.400 119.885 C 154.400 122.602,153.759 123.049,149.503 123.303 C 146.722 123.469,145.324 123.757,144.036 124.428 C 139.755 126.659,133.188 125.592,132.621 122.574 C 132.376 121.266,132.283 121.200,130.682 121.206 C 128.345 121.215,127.991 121.558,127.639 124.155 C 127.267 126.895,127.008 127.190,124.580 127.643 C 123.541 127.837,122.491 128.254,122.245 128.569 C 120.599 130.687,111.360 130.726,110.552 128.618 C 110.125 127.507,109.200 127.917,109.200 129.216 C 109.200 134.558,103.271 136.236,101.481 131.400 C 101.074 130.300,100.471 129.101,100.141 128.736 C 98.499 126.918,100.844 121.200,103.232 121.200 C 103.452 121.200,104.137 120.827,104.753 120.372 C 105.369 119.916,106.633 119.373,107.561 119.164 C 108.490 118.955,109.598 118.460,110.024 118.063 C 110.451 117.666,111.903 117.136,113.252 116.885 C 114.601 116.634,116.024 116.141,116.413 115.788 C 116.810 115.429,118.589 114.929,120.461 114.651 C 122.297 114.379,124.291 113.833,124.891 113.438 C 125.593 112.976,127.231 112.609,129.491 112.408 C 131.569 112.223,133.734 111.761,134.800 111.274 C 136.116 110.674,137.837 110.384,141.200 110.195 C 144.450 110.013,146.387 109.696,147.799 109.115 C 149.478 108.424,151.110 108.243,157.999 107.983 C 164.109 107.752,166.659 107.501,168.000 106.998 C 171.184 105.804,211.823 105.350,220.893 106.408 M172.640 129.360 C 174.574 131.294,174.597 133.883,172.698 135.782 C 169.931 138.549,169.994 136.736,169.997 213.245 C 169.999 266.098,170.110 281.567,170.500 283.245 C 171.238 286.426,170.986 298.047,170.128 300.400 C 169.264 302.769,168.655 303.200,166.169 303.200 C 165.027 303.200,163.176 303.496,162.057 303.857 C 160.171 304.466,159.783 304.466,156.712 303.857 C 154.890 303.495,152.855 303.200,152.189 303.200 C 150.622 303.200,149.466 302.367,148.652 300.653 C 148.056 299.397,148.000 292.494,148.000 220.466 C 148.000 144.050,148.057 139.997,149.134 139.208 C 149.291 139.094,149.719 138.526,150.087 137.948 L 150.756 136.895 148.541 136.712 C 146.161 136.514,145.865 136.270,145.135 133.900 C 144.784 132.758,144.787 132.022,145.147 130.818 C 146.026 127.886,145.462 128.000,159.069 128.000 L 171.280 128.000 172.640 129.360 M250.157 129.155 C 252.331 131.424,251.826 135.312,249.219 136.392 C 248.548 136.670,247.997 137.100,247.992 137.349 C 247.988 137.597,247.982 173.980,247.979 218.200 C 247.973 294.557,247.882 301.478,246.871 302.489 C 245.202 304.158,232.229 304.356,228.121 302.775 C 225.611 301.808,225.800 308.533,225.800 220.388 L 225.800 140.541 226.900 138.879 C 228.290 136.780,228.294 136.800,226.489 136.800 C 222.639 136.800,220.848 132.910,223.203 129.660 L 224.405 128.000 236.728 128.000 L 249.050 128.000 250.157 129.155 M129.111 137.423 C 130.811 138.613,130.363 144.573,128.500 145.554 L 127.600 146.028 127.600 219.988 C 127.600 294.465,127.578 295.616,126.131 296.172 C 121.687 297.878,114.149 297.957,107.927 296.362 C 105.444 295.725,105.543 299.077,105.678 220.200 L 105.800 148.600 106.688 147.355 C 107.725 145.901,107.558 145.600,105.713 145.600 C 103.919 145.600,102.160 144.650,101.856 143.516 C 101.155 140.899,101.806 138.555,103.530 137.485 C 105.092 136.516,127.738 136.461,129.111 137.423 M215.088 235.421 C 216.429 236.300,216.399 239.320,215.041 240.210 C 214.514 240.555,213.614 241.514,213.041 242.340 L 212.000 243.843 212.000 263.108 L 212.000 282.372 213.236 283.637 C 214.753 285.188,214.927 292.047,213.486 293.487 C 212.614 294.358,185.930 294.819,184.380 293.989 C 181.150 292.261,181.087 286.645,184.258 283.099 L 185.600 281.598 185.600 267.225 C 185.600 252.675,185.749 251.012,187.094 250.522 C 187.482 250.381,188.391 249.755,189.114 249.133 C 189.837 248.510,190.685 248.000,190.998 248.000 C 191.715 248.000,193.245 246.396,192.963 245.939 C 192.847 245.753,191.440 245.600,189.836 245.600 C 186.399 245.600,184.473 244.608,183.777 242.478 C 183.545 241.766,182.960 240.907,182.477 240.569 C 181.452 239.851,181.192 236.037,182.115 235.270 C 183.375 234.224,213.472 234.362,215.088 235.421 M98.400 293.632 C 98.730 294.043,99.630 294.588,100.400 294.845 C 101.170 295.101,102.160 295.622,102.600 296.003 C 103.040 296.384,104.210 296.816,105.200 296.964 C 106.261 297.121,107.246 297.550,107.600 298.006 C 108.013 298.539,109.010 298.894,110.803 299.146 C 112.234 299.347,114.034 299.873,114.803 300.315 C 115.598 300.772,117.394 301.239,118.969 301.398 C 120.711 301.574,122.125 301.964,122.780 302.448 C 123.540 303.010,124.907 303.312,127.845 303.568 C 130.589 303.806,132.394 304.185,133.519 304.759 C 134.661 305.342,135.918 305.600,137.607 305.600 C 140.938 305.600,145.604 306.345,146.716 307.055 C 147.382 307.480,149.847 307.745,155.716 308.022 C 161.621 308.301,164.663 308.630,167.000 309.240 C 171.970 310.537,226.023 310.521,230.993 309.221 C 233.349 308.604,236.322 308.288,242.332 308.013 C 248.511 307.731,250.706 307.492,251.420 307.024 C 252.057 306.607,254.275 306.260,258.281 305.951 C 262.781 305.604,264.529 305.308,265.571 304.719 C 266.520 304.182,268.210 303.841,271.056 303.614 C 274.083 303.371,275.520 303.067,276.500 302.462 C 277.304 301.965,278.931 301.527,280.615 301.355 C 282.292 301.183,284.100 300.698,285.160 300.135 C 286.127 299.621,287.577 299.200,288.382 299.200 C 289.297 299.200,290.331 298.841,291.143 298.242 C 291.856 297.716,293.208 297.091,294.147 296.855 C 295.085 296.619,296.184 296.060,296.588 295.613 C 296.993 295.166,297.539 294.800,297.803 294.800 C 298.066 294.800,298.846 294.260,299.537 293.600 C 301.944 291.299,304.400 293.419,304.400 297.798 C 304.400 299.640,305.371 300.277,308.600 300.556 C 322.139 301.727,321.321 300.763,321.127 315.325 L 321.000 324.850 318.281 327.425 C 316.786 328.841,315.321 330.000,315.027 330.000 C 314.733 330.000,314.212 330.428,313.869 330.951 C 313.504 331.508,312.679 332.009,311.878 332.159 C 311.125 332.300,310.187 332.773,309.791 333.210 C 309.396 333.646,308.337 334.200,307.436 334.441 C 306.536 334.681,305.502 335.195,305.138 335.582 C 304.773 335.969,303.695 336.410,302.742 336.563 C 301.789 336.715,300.630 337.196,300.167 337.631 C 299.701 338.069,298.352 338.580,297.143 338.777 C 295.943 338.972,294.336 339.501,293.572 339.952 C 292.807 340.403,291.106 340.897,289.791 341.051 C 288.458 341.206,286.941 341.668,286.363 342.093 C 285.657 342.614,284.256 342.957,281.963 343.172 C 279.687 343.385,278.139 343.762,277.173 344.340 C 276.133 344.961,274.668 345.285,271.773 345.531 C 269.293 345.743,267.274 346.144,266.400 346.599 C 265.364 347.138,263.558 347.411,259.459 347.648 C 255.148 347.897,253.540 348.151,252.212 348.794 C 250.705 349.524,249.380 349.659,240.946 349.946 C 234.963 350.150,231.056 350.449,230.502 350.745 C 228.744 351.686,221.409 351.979,199.600 351.981 C 177.431 351.983,173.859 351.810,167.600 350.431 C 166.610 350.213,163.190 350.026,160.000 350.014 C 153.003 349.990,147.968 349.460,146.674 348.612 C 145.983 348.159,144.037 347.893,139.659 347.654 C 134.787 347.388,133.449 347.187,132.832 346.629 C 132.273 346.123,130.891 345.832,127.753 345.560 C 124.600 345.286,123.060 344.961,122.025 344.350 C 121.083 343.794,119.498 343.413,117.288 343.212 C 114.807 342.986,113.744 342.704,113.084 342.100 C 112.475 341.543,111.368 341.206,109.528 341.017 C 107.836 340.843,106.547 340.474,106.013 340.011 C 105.549 339.609,104.069 339.086,102.723 338.849 C 101.287 338.596,99.984 338.105,99.569 337.659 C 99.180 337.242,98.063 336.780,97.087 336.634 C 96.111 336.488,94.724 335.934,94.007 335.405 C 93.289 334.875,92.186 334.329,91.555 334.190 C 90.925 334.052,90.304 333.769,90.176 333.562 C 90.048 333.354,89.079 332.747,88.022 332.211 C 86.965 331.675,85.993 330.959,85.862 330.619 C 85.732 330.278,85.360 330.000,85.037 330.000 C 84.713 330.000,83.292 328.833,81.879 327.406 C 78.921 324.418,78.800 323.998,78.800 316.721 C 78.800 309.146,79.988 306.972,82.824 309.358 C 83.504 309.931,84.290 310.400,84.569 310.400 C 84.848 310.400,85.419 310.779,85.838 311.243 C 86.257 311.706,87.261 312.350,88.069 312.674 C 88.877 312.997,89.626 313.490,89.733 313.769 C 89.840 314.048,90.770 314.512,91.800 314.800 C 92.830 315.088,93.765 315.564,93.878 315.858 C 93.990 316.151,94.829 316.589,95.741 316.831 C 96.654 317.073,97.779 317.623,98.243 318.052 C 98.706 318.481,99.786 318.936,100.643 319.062 C 101.499 319.189,102.830 319.703,103.600 320.205 C 104.370 320.706,105.883 321.240,106.962 321.392 C 108.041 321.544,109.409 322.027,110.003 322.465 C 110.655 322.947,112.157 323.396,113.800 323.600 C 115.463 323.806,116.944 324.252,117.615 324.748 C 118.374 325.309,119.659 325.644,121.785 325.837 C 123.513 325.994,125.501 326.449,126.329 326.878 C 127.310 327.386,129.247 327.760,132.143 328.002 C 135.088 328.248,136.827 328.588,137.543 329.058 C 138.364 329.596,140.252 329.859,146.000 330.236 C 151.573 330.601,153.795 330.903,155.000 331.460 C 159.205 333.404,210.000 332.369,210.000 330.339 C 210.000 330.153,202.395 329.997,193.100 329.994 C 174.841 329.987,167.542 329.604,165.497 328.547 C 164.531 328.047,162.494 327.816,157.122 327.597 C 151.346 327.361,149.821 327.175,148.943 326.600 C 148.161 326.087,146.547 325.801,143.081 325.560 C 139.446 325.307,137.905 325.023,136.661 324.374 C 135.595 323.819,133.776 323.404,131.444 323.185 C 128.963 322.953,127.547 322.616,126.832 322.089 C 126.192 321.617,124.755 321.222,123.051 321.048 C 121.351 320.875,119.598 320.392,118.455 319.784 C 117.438 319.243,116.065 318.799,115.403 318.798 C 114.741 318.798,113.120 318.258,111.800 317.600 C 110.480 316.942,108.912 316.402,108.316 316.402 C 107.719 316.401,106.882 316.025,106.454 315.566 C 106.027 315.108,104.915 314.561,103.984 314.352 C 103.052 314.142,101.856 313.630,101.326 313.213 C 100.796 312.796,99.850 312.343,99.223 312.205 C 98.596 312.067,97.753 311.590,97.350 311.144 C 96.946 310.699,96.021 310.085,95.294 309.781 C 93.206 308.909,92.800 307.398,92.800 300.502 C 92.800 293.975,93.092 292.987,95.104 292.691 C 96.649 292.464,97.704 292.765,98.400 293.632 " stroke="none" fill="#54a3d3" fill-rule="evenodd"></path><path id="path2" d="M175.925 50.397 C 173.666 50.578,172.070 50.924,171.366 51.385 C 170.642 51.860,169.012 52.198,166.442 52.407 C 162.635 52.717,160.698 53.194,160.240 53.935 C 160.110 54.146,158.744 54.445,157.204 54.600 C 155.305 54.790,154.067 55.147,153.354 55.708 C 152.775 56.163,151.385 56.680,150.263 56.857 C 149.142 57.035,147.736 57.541,147.139 57.982 C 146.543 58.423,145.309 58.951,144.399 59.156 C 143.488 59.360,142.417 59.823,142.019 60.183 C 141.620 60.543,140.600 61.030,139.751 61.265 C 138.902 61.499,137.697 62.120,137.073 62.645 C 136.449 63.170,135.584 63.600,135.150 63.600 C 134.717 63.600,133.964 64.029,133.477 64.554 C 132.991 65.079,131.965 65.803,131.196 66.163 C 129.046 67.170,126.868 68.576,125.976 69.533 C 125.532 70.010,124.900 70.400,124.572 70.400 C 124.244 70.400,123.869 70.676,123.739 71.014 C 123.610 71.352,122.717 72.169,121.755 72.831 C 113.879 78.250,112.333 83.200,118.518 83.200 C 120.117 83.200,121.045 82.959,122.044 82.285 C 122.790 81.782,124.515 81.165,125.878 80.914 C 127.241 80.662,128.861 80.102,129.478 79.668 C 130.282 79.104,131.541 78.815,133.917 78.651 C 136.055 78.504,137.903 78.115,139.117 77.558 C 142.074 76.200,167.577 76.198,170.523 77.555 C 171.598 78.050,173.949 78.612,175.849 78.828 C 178.026 79.075,179.639 79.487,180.326 79.971 C 180.917 80.388,182.294 80.851,183.387 81.002 C 184.590 81.167,185.825 81.655,186.518 82.238 C 187.147 82.767,188.160 83.200,188.769 83.200 C 189.378 83.200,190.196 83.554,190.587 83.986 C 190.978 84.418,192.086 85.072,193.049 85.440 C 194.012 85.808,194.800 86.268,194.800 86.463 C 194.800 86.658,195.250 87.022,195.800 87.273 C 197.617 88.101,196.860 88.298,190.900 88.554 C 187.655 88.693,183.650 88.984,182.000 89.202 C 180.350 89.420,175.220 89.766,170.600 89.972 C 160.921 90.402,158.963 90.629,157.649 91.474 C 156.988 91.899,154.861 92.199,150.668 92.460 C 146.318 92.730,144.170 93.041,142.961 93.576 C 141.895 94.048,139.775 94.418,137.142 94.592 C 134.042 94.797,132.648 95.073,131.600 95.689 C 130.659 96.242,129.022 96.623,126.604 96.852 C 124.049 97.093,122.698 97.421,121.938 97.983 C 121.349 98.418,119.643 98.969,118.146 99.209 C 116.649 99.448,114.879 99.972,114.212 100.375 C 113.545 100.777,112.132 101.230,111.071 101.382 C 110.010 101.533,108.814 101.986,108.413 102.387 C 108.012 102.788,106.725 103.321,105.552 103.573 C 104.379 103.825,103.055 104.353,102.610 104.747 C 102.164 105.141,100.990 105.694,100.000 105.974 C 99.010 106.255,97.930 106.747,97.600 107.068 C 97.270 107.389,96.370 107.987,95.600 108.398 C 94.830 108.808,93.435 109.553,92.500 110.052 C 91.565 110.551,90.800 111.098,90.800 111.266 C 90.800 111.435,90.199 112.174,89.464 112.909 C 88.363 114.011,88.080 114.659,87.851 116.606 C 87.698 117.904,87.288 119.282,86.939 119.667 C 86.081 120.616,85.789 123.606,86.469 124.497 C 87.792 126.234,90.428 125.865,92.810 123.611 C 94.014 122.470,95.630 121.184,96.400 120.753 C 97.772 119.983,99.998 118.448,101.196 117.444 C 101.528 117.166,102.575 116.717,103.521 116.447 C 104.468 116.176,105.338 115.705,105.456 115.399 C 105.573 115.093,106.633 114.642,107.810 114.398 C 108.988 114.153,110.367 113.629,110.876 113.233 C 111.384 112.837,112.700 112.384,113.800 112.227 C 114.900 112.070,116.430 111.525,117.200 111.016 C 118.069 110.442,119.510 109.995,121.000 109.837 C 122.375 109.691,123.846 109.257,124.446 108.820 C 125.144 108.310,126.690 107.923,129.100 107.654 C 131.309 107.407,133.306 106.931,134.248 106.425 C 135.262 105.882,136.542 105.597,137.994 105.592 C 141.268 105.580,145.644 104.863,146.711 104.164 C 147.397 103.714,149.500 103.452,154.525 103.189 C 162.142 102.790,163.642 102.578,165.400 101.657 C 166.460 101.101,170.148 101.026,197.000 101.014 L 227.400 101.000 229.546 101.931 C 231.370 102.722,232.723 102.912,238.572 103.199 C 244.230 103.476,245.731 103.678,247.026 104.341 C 248.156 104.919,249.786 105.221,252.800 105.411 C 255.717 105.595,257.465 105.910,258.523 106.443 C 259.415 106.893,261.614 107.373,263.837 107.604 C 266.540 107.884,267.940 108.227,268.714 108.798 C 269.378 109.287,270.889 109.736,272.600 109.951 C 274.140 110.145,276.030 110.666,276.800 111.109 C 277.570 111.552,279.071 112.037,280.135 112.187 C 281.199 112.337,282.891 112.896,283.894 113.430 C 284.898 113.963,286.197 114.400,286.782 114.400 C 287.366 114.400,288.424 114.828,289.133 115.351 C 289.842 115.873,291.096 116.409,291.920 116.541 C 292.744 116.673,294.034 117.235,294.787 117.790 C 295.539 118.346,296.467 118.800,296.847 118.800 C 297.227 118.800,298.073 119.250,298.727 119.800 C 299.381 120.350,300.048 120.800,300.209 120.800 C 300.371 120.800,301.245 121.439,302.152 122.220 C 306.149 125.663,307.750 126.250,309.200 124.800 C 310.570 123.430,310.168 118.226,308.600 117.033 C 308.288 116.795,307.857 115.804,307.643 114.831 C 307.429 113.858,306.985 112.912,306.657 112.728 C 306.329 112.544,305.840 111.720,305.572 110.897 C 305.304 110.074,304.660 108.891,304.142 108.269 C 303.624 107.647,303.200 106.907,303.200 106.624 C 303.200 106.131,302.015 104.416,299.828 101.745 C 299.262 101.055,298.800 100.315,298.800 100.100 C 298.800 99.705,297.298 97.588,295.465 95.400 C 294.912 94.740,293.951 93.588,293.330 92.840 C 292.708 92.092,291.705 90.985,291.100 90.379 C 290.495 89.774,290.000 89.100,290.000 88.881 C 290.000 88.433,278.087 76.800,277.628 76.800 C 277.466 76.800,276.538 76.065,275.567 75.166 C 273.549 73.300,269.034 70.000,268.498 70.000 C 268.301 70.000,267.717 69.550,267.200 69.000 C 266.683 68.450,266.100 68.000,265.904 68.000 C 265.707 68.000,264.974 67.564,264.273 67.031 C 263.573 66.498,262.500 65.938,261.889 65.785 C 261.279 65.633,260.610 65.192,260.403 64.805 C 260.196 64.418,259.203 63.894,258.197 63.641 C 257.191 63.388,256.266 62.916,256.142 62.594 C 256.018 62.271,255.171 61.792,254.259 61.528 C 253.346 61.264,252.091 60.632,251.469 60.124 C 250.847 59.616,249.847 59.200,249.247 59.200 C 248.647 59.200,247.555 58.757,246.822 58.216 C 246.088 57.675,244.658 57.119,243.644 56.980 C 242.630 56.842,241.292 56.370,240.672 55.931 C 240.051 55.493,238.341 54.953,236.872 54.732 C 235.402 54.511,233.540 53.983,232.733 53.558 C 231.811 53.073,229.831 52.650,227.405 52.420 C 224.995 52.192,223.156 51.801,222.514 51.380 C 220.615 50.136,187.804 49.443,175.925 50.397 M215.600 52.195 C 217.250 52.545,220.629 53.089,223.109 53.406 C 225.588 53.722,227.979 54.174,228.420 54.411 C 228.862 54.647,230.859 55.197,232.857 55.634 C 234.856 56.070,236.972 56.675,237.560 56.979 C 238.147 57.283,239.341 57.661,240.214 57.820 C 241.086 57.979,242.609 58.534,243.597 59.054 C 244.585 59.574,245.652 60.000,245.967 60.000 C 246.529 60.000,249.832 61.513,255.400 64.322 C 256.940 65.099,258.920 66.093,259.800 66.532 C 260.680 66.970,261.760 67.625,262.200 67.986 C 262.640 68.347,264.170 69.342,265.600 70.196 C 268.129 71.707,268.956 72.302,273.585 75.941 C 279.680 80.732,287.509 88.399,291.668 93.651 C 294.345 97.033,296.540 100.005,298.128 102.400 C 299.077 103.830,300.201 105.523,300.626 106.163 C 301.846 107.996,303.480 110.851,304.342 112.656 C 304.778 113.567,305.315 114.424,305.536 114.560 C 305.757 114.697,306.326 115.975,306.800 117.400 C 307.274 118.825,307.828 120.094,308.031 120.219 C 308.541 120.535,308.496 123.093,307.975 123.416 C 307.741 123.560,307.232 123.391,306.843 123.039 C 306.455 122.688,305.948 122.400,305.717 122.400 C 305.487 122.400,305.072 122.128,304.797 121.796 C 304.155 121.023,299.019 117.600,298.500 117.600 C 298.284 117.600,297.679 117.266,297.154 116.858 C 296.629 116.450,295.495 115.886,294.633 115.605 C 293.770 115.324,292.510 114.772,291.833 114.379 C 291.155 113.986,289.790 113.455,288.800 113.200 C 287.810 112.944,286.618 112.490,286.151 112.192 C 285.684 111.893,284.162 111.353,282.769 110.992 C 281.375 110.631,279.777 110.101,279.218 109.815 C 278.658 109.529,277.390 109.161,276.400 108.998 C 275.410 108.836,273.700 108.348,272.600 107.915 C 271.500 107.483,269.128 106.871,267.328 106.556 C 265.529 106.241,263.441 105.726,262.689 105.412 C 261.937 105.097,259.900 104.660,258.161 104.440 C 256.422 104.220,253.470 103.686,251.600 103.253 C 249.730 102.820,246.760 102.351,245.000 102.211 C 243.240 102.071,240.166 101.612,238.169 101.191 C 236.173 100.771,231.313 100.240,227.369 100.010 C 223.426 99.781,217.950 99.373,215.200 99.102 C 208.714 98.464,186.603 98.465,179.400 99.104 C 176.320 99.377,170.593 99.785,166.674 100.011 C 162.755 100.237,157.805 100.763,155.674 101.180 C 153.543 101.597,150.270 102.058,148.400 102.204 C 146.530 102.351,143.530 102.808,141.733 103.220 C 139.936 103.632,136.912 104.162,135.013 104.398 C 133.114 104.634,130.703 105.165,129.656 105.578 C 128.609 105.990,126.864 106.447,125.776 106.592 C 123.914 106.840,120.205 107.924,115.200 109.683 C 113.990 110.108,112.150 110.695,111.110 110.989 C 110.071 111.282,108.631 111.877,107.910 112.310 C 107.190 112.743,106.071 113.222,105.424 113.375 C 104.778 113.528,103.788 113.981,103.224 114.381 C 102.661 114.781,101.570 115.400,100.800 115.755 C 98.747 116.704,96.448 118.281,92.988 121.114 C 89.173 124.238,88.559 124.078,88.969 120.068 C 89.538 114.518,91.462 112.407,99.600 108.405 C 106.914 104.808,108.891 104.001,114.200 102.445 C 115.520 102.058,117.140 101.462,117.800 101.121 C 118.460 100.781,120.199 100.296,121.664 100.045 C 123.130 99.794,124.964 99.324,125.741 98.999 C 126.517 98.674,128.903 98.127,131.043 97.783 C 133.182 97.439,135.243 96.991,135.621 96.789 C 136.000 96.586,138.535 96.135,141.255 95.786 C 143.975 95.437,147.190 94.901,148.400 94.595 C 149.610 94.288,153.390 93.760,156.800 93.420 C 160.210 93.081,164.350 92.529,166.000 92.195 C 168.052 91.780,173.868 91.444,184.400 91.134 C 192.870 90.884,200.015 90.513,200.279 90.309 C 200.777 89.922,199.795 87.200,199.157 87.200 C 198.994 87.200,198.007 86.548,196.963 85.751 C 194.799 84.099,186.969 80.000,185.978 80.000 C 185.615 80.000,184.512 79.571,183.525 79.046 C 182.539 78.522,180.937 77.969,179.966 77.819 C 178.995 77.668,177.120 77.200,175.800 76.777 C 167.168 74.013,142.419 73.999,133.726 76.754 C 132.447 77.159,130.536 77.618,129.481 77.773 C 128.425 77.928,126.625 78.491,125.481 79.024 C 124.336 79.556,123.052 79.994,122.626 79.996 C 122.201 79.998,121.072 80.378,120.118 80.840 C 113.261 84.159,118.871 76.554,127.600 70.697 C 128.150 70.328,129.369 69.482,130.309 68.817 C 131.249 68.151,132.746 67.201,133.635 66.704 C 134.524 66.207,136.275 65.225,137.526 64.523 C 138.777 63.821,140.250 63.038,140.800 62.782 C 141.350 62.527,142.880 61.796,144.200 61.159 C 145.520 60.521,146.873 60.000,147.206 60.000 C 147.539 60.000,148.465 59.650,149.264 59.222 C 150.062 58.794,151.851 58.149,153.240 57.790 C 154.628 57.430,156.223 56.903,156.782 56.619 C 157.342 56.334,158.999 55.896,160.464 55.645 C 161.930 55.394,163.760 54.925,164.532 54.603 C 165.303 54.280,168.244 53.733,171.067 53.386 C 173.890 53.039,177.010 52.570,178.000 52.345 C 183.602 51.069,209.791 50.965,215.600 52.195 M178.600 106.052 C 171.836 106.260,169.384 106.479,168.000 106.998 C 166.659 107.501,164.109 107.752,157.999 107.983 C 151.110 108.243,149.478 108.424,147.799 109.115 C 146.387 109.696,144.450 110.013,141.200 110.195 C 137.837 110.384,136.116 110.674,134.800 111.274 C 133.734 111.761,131.569 112.223,129.491 112.408 C 127.231 112.609,125.593 112.976,124.891 113.438 C 124.291 113.833,122.297 114.379,120.461 114.651 C 118.589 114.929,116.810 115.429,116.413 115.788 C 116.024 116.141,114.601 116.634,113.252 116.885 C 111.903 117.136,110.451 117.666,110.024 118.063 C 109.598 118.460,108.490 118.955,107.561 119.164 C 106.633 119.373,105.369 119.916,104.753 120.372 C 104.137 120.827,103.452 121.200,103.232 121.200 C 100.844 121.200,98.499 126.918,100.141 128.736 C 100.471 129.101,101.074 130.300,101.481 131.400 C 103.271 136.236,109.200 134.558,109.200 129.216 C 109.200 127.917,110.125 127.507,110.552 128.618 C 111.360 130.726,120.599 130.687,122.245 128.569 C 122.491 128.254,123.541 127.837,124.580 127.643 C 127.008 127.190,127.267 126.895,127.639 124.155 C 127.991 121.558,128.345 121.215,130.682 121.206 C 132.283 121.200,132.376 121.266,132.621 122.574 C 133.188 125.592,139.755 126.659,144.036 124.428 C 145.324 123.757,146.722 123.469,149.503 123.303 C 153.759 123.049,154.400 122.602,154.400 119.885 C 154.400 116.980,154.692 116.800,159.414 116.800 L 163.600 116.800 163.600 118.000 C 163.600 121.069,165.426 121.410,179.410 120.948 C 191.274 120.557,191.012 120.631,192.127 117.400 L 192.679 115.800 197.327 115.687 C 202.415 115.564,203.600 116.024,203.600 118.124 C 203.600 120.597,203.469 120.572,218.026 120.895 C 230.448 121.171,231.409 121.245,232.719 122.017 C 233.714 122.604,235.272 122.944,238.092 123.189 C 240.780 123.423,242.293 123.741,242.772 124.175 C 243.162 124.527,244.874 125.082,246.578 125.408 C 248.281 125.734,250.132 126.361,250.691 126.800 C 251.250 127.240,252.304 127.600,253.033 127.600 C 253.884 127.600,254.736 127.950,255.411 128.575 C 255.990 129.111,257.034 129.672,257.732 129.820 C 258.429 129.968,259.270 130.324,259.600 130.611 C 259.930 130.898,260.944 131.553,261.852 132.067 C 267.095 135.027,268.090 136.099,266.651 137.231 C 263.931 139.371,265.531 145.600,268.800 145.600 C 270.709 145.600,270.861 146.191,269.400 147.927 L 268.400 149.115 268.400 221.212 L 268.400 293.308 269.300 294.180 C 269.795 294.659,270.399 295.400,270.643 295.826 C 271.139 296.693,284.043 297.217,287.400 296.507 C 290.891 295.767,290.573 302.948,290.800 219.695 L 291.000 146.389 292.500 145.015 C 294.346 143.324,294.756 139.040,293.200 137.707 C 292.130 136.791,292.192 135.637,293.400 134.000 C 293.950 133.255,294.400 132.211,294.400 131.680 C 294.400 131.150,294.850 130.181,295.400 129.527 C 297.540 126.983,295.430 122.259,291.752 121.360 C 291.119 121.205,290.091 120.656,289.469 120.139 C 288.815 119.596,287.813 119.200,287.091 119.200 C 286.405 119.200,285.201 118.755,284.417 118.212 C 283.518 117.588,282.033 117.088,280.393 116.856 C 278.964 116.653,277.166 116.120,276.397 115.670 C 275.620 115.215,273.847 114.732,272.400 114.580 C 270.970 114.431,268.990 113.951,268.000 113.515 C 266.959 113.056,264.682 112.590,262.600 112.411 C 260.368 112.218,258.298 111.779,257.153 111.255 C 255.764 110.619,254.128 110.345,250.553 110.149 C 246.989 109.953,245.401 109.688,244.207 109.088 C 242.849 108.407,241.431 108.245,234.607 107.992 C 230.203 107.829,226.102 107.498,225.493 107.255 C 222.429 106.035,198.803 105.429,178.600 106.052 M210.600 107.995 C 213.460 108.211,219.940 108.657,225.000 108.985 C 230.060 109.313,235.730 109.849,237.600 110.176 C 239.470 110.503,242.890 110.959,245.200 111.190 C 247.510 111.421,250.840 111.960,252.600 112.388 C 254.360 112.817,257.366 113.360,259.281 113.596 C 261.195 113.832,263.377 114.282,264.130 114.597 C 264.883 114.911,266.737 115.359,268.249 115.591 C 269.762 115.824,271.990 116.355,273.200 116.771 C 274.410 117.188,276.480 117.801,277.800 118.134 C 280.984 118.938,285.023 120.286,287.000 121.206 C 287.880 121.615,289.454 122.337,290.498 122.810 C 294.448 124.599,294.924 127.465,292.091 132.400 C 290.513 135.150,290.234 136.702,291.011 138.424 C 291.970 140.551,291.618 143.105,290.227 144.119 L 289.200 144.867 289.200 218.207 C 289.200 264.883,289.058 291.921,288.810 292.574 C 287.564 295.851,274.855 296.917,271.928 293.990 L 270.800 292.862 270.800 221.250 C 270.800 143.812,270.666 148.230,273.063 146.816 C 275.612 145.312,274.407 144.000,270.475 144.000 C 266.368 144.000,265.055 138.404,269.051 137.927 C 270.856 137.712,271.162 136.629,269.783 135.335 C 267.974 133.637,265.409 131.727,263.931 130.978 C 263.199 130.607,262.330 130.085,262.000 129.818 C 261.670 129.550,260.770 129.089,260.000 128.793 C 259.230 128.496,258.171 127.927,257.646 127.527 C 257.121 127.127,256.383 126.800,256.006 126.800 C 255.628 126.800,254.502 126.365,253.503 125.834 C 252.504 125.303,250.555 124.579,249.172 124.224 C 247.789 123.870,246.462 123.417,246.222 123.218 C 245.982 123.019,244.528 122.649,242.993 122.397 C 241.457 122.145,239.120 121.593,237.800 121.171 C 236.480 120.749,232.700 120.130,229.400 119.795 C 226.100 119.460,221.960 119.018,220.200 118.814 C 218.440 118.610,214.525 118.433,211.500 118.422 C 205.390 118.398,204.400 118.016,204.400 115.680 C 204.400 113.748,203.915 113.600,197.569 113.600 C 191.224 113.600,191.036 113.660,190.445 115.868 C 189.779 118.360,188.810 118.549,172.137 119.438 L 166.873 119.718 165.837 117.673 C 164.405 114.848,164.096 114.741,158.742 115.236 C 153.477 115.723,153.565 115.670,153.162 118.638 C 152.754 121.645,152.902 121.563,146.759 122.179 C 143.812 122.474,140.330 123.028,139.023 123.409 L 136.646 124.101 135.623 122.888 C 135.060 122.220,134.260 121.185,133.844 120.587 C 132.188 118.207,126.312 119.884,125.835 122.873 C 125.414 125.512,124.710 126.306,122.508 126.624 C 121.458 126.775,119.570 127.327,118.312 127.850 C 115.477 129.027,113.958 129.058,112.963 127.959 C 110.384 125.109,107.185 125.881,106.749 129.460 C 106.350 132.727,105.772 133.123,103.915 131.402 C 102.103 129.721,101.452 126.009,102.649 124.181 C 103.257 123.253,109.231 120.000,110.327 120.000 C 110.602 120.000,111.676 119.572,112.713 119.048 C 113.751 118.525,115.410 117.967,116.400 117.809 C 117.390 117.650,118.930 117.204,119.822 116.817 C 120.713 116.431,122.333 115.986,123.422 115.830 C 124.510 115.673,126.750 115.131,128.400 114.624 C 130.050 114.117,132.570 113.578,134.000 113.427 C 135.430 113.275,137.950 112.812,139.600 112.396 C 141.250 111.981,144.504 111.449,146.831 111.214 C 149.159 110.979,152.579 110.515,154.431 110.183 C 156.284 109.851,162.300 109.304,167.800 108.966 C 173.300 108.629,179.780 108.209,182.200 108.034 C 188.664 107.564,204.618 107.543,210.600 107.995 M146.239 128.618 C 145.138 129.720,144.616 132.214,145.135 133.900 C 145.865 136.270,146.161 136.514,148.541 136.712 L 150.756 136.895 150.087 137.948 C 149.719 138.526,149.291 139.094,149.134 139.208 C 148.057 139.997,148.000 144.050,148.000 220.466 C 148.000 292.494,148.056 299.397,148.652 300.653 C 149.466 302.367,150.622 303.200,152.189 303.200 C 152.855 303.200,154.890 303.495,156.712 303.857 C 159.783 304.466,160.171 304.466,162.057 303.857 C 163.176 303.496,165.027 303.200,166.169 303.200 C 168.655 303.200,169.264 302.769,170.128 300.400 C 170.986 298.047,171.238 286.426,170.500 283.245 C 170.110 281.567,169.999 266.098,169.997 213.245 C 169.994 136.736,169.931 138.549,172.698 135.782 C 174.597 133.883,174.574 131.294,172.640 129.360 L 171.280 128.000 159.069 128.000 C 148.590 128.000,146.769 128.088,146.239 128.618 M223.203 129.660 C 220.848 132.910,222.639 136.800,226.489 136.800 C 228.294 136.800,228.290 136.780,226.900 138.879 L 225.800 140.541 225.800 220.388 C 225.800 308.533,225.611 301.808,228.121 302.775 C 232.229 304.356,245.202 304.158,246.871 302.489 C 247.882 301.478,247.973 294.557,247.979 218.200 C 247.982 173.980,247.988 137.597,247.992 137.349 C 247.997 137.100,248.548 136.670,249.219 136.392 C 251.826 135.312,252.331 131.424,250.157 129.155 L 249.050 128.000 236.728 128.000 L 224.405 128.000 223.203 129.660 M170.851 130.261 C 171.872 131.492,171.542 134.199,170.200 135.600 L 169.000 136.853 168.949 218.304 L 168.899 299.756 167.685 300.841 C 165.144 303.111,153.424 303.040,151.500 300.743 L 150.400 299.430 150.400 220.277 C 150.400 131.549,150.117 139.588,153.300 137.954 C 156.067 136.533,154.370 135.207,149.780 135.202 C 146.952 135.199,145.796 133.023,147.214 130.374 C 147.807 129.267,169.938 129.162,170.851 130.261 M248.387 130.184 C 249.542 131.576,249.385 133.907,248.052 135.152 L 246.800 136.321 246.800 217.334 C 246.800 266.345,246.653 298.735,246.428 299.327 C 245.504 301.756,244.025 302.200,236.854 302.200 L 230.309 302.200 228.933 300.609 L 227.558 299.018 227.679 220.409 C 227.816 131.595,227.500 139.683,230.893 137.953 C 233.513 136.616,232.495 135.578,228.294 135.303 C 224.516 135.056,223.580 133.808,224.790 130.626 L 225.180 129.600 236.541 129.600 C 246.016 129.600,247.983 129.697,248.387 130.184 M103.530 137.485 C 101.806 138.555,101.155 140.899,101.856 143.516 C 102.160 144.650,103.919 145.600,105.713 145.600 C 107.558 145.600,107.725 145.901,106.688 147.355 L 105.800 148.600 105.678 220.200 C 105.543 299.077,105.444 295.725,107.927 296.362 C 114.149 297.957,121.687 297.878,126.131 296.172 C 127.578 295.616,127.600 294.465,127.600 219.988 L 127.600 146.028 128.500 145.554 C 130.363 144.573,130.811 138.613,129.111 137.423 C 127.738 136.461,105.092 136.516,103.530 137.485 M128.177 139.289 C 129.280 140.863,128.994 143.408,127.603 144.398 L 126.406 145.250 126.303 219.056 L 126.200 292.862 124.677 294.257 L 123.155 295.652 116.344 295.526 L 109.533 295.400 108.366 294.094 L 107.200 292.787 107.200 221.460 L 107.200 150.133 108.732 148.567 C 109.574 147.705,110.699 146.688,111.232 146.306 C 112.737 145.228,111.386 144.400,108.124 144.400 C 104.341 144.400,103.041 142.616,104.610 139.580 L 105.221 138.400 116.388 138.400 C 127.474 138.400,127.559 138.406,128.177 139.289 M185.215 234.667 C 181.945 234.889,181.600 235.190,181.600 237.826 C 181.600 239.564,181.761 240.068,182.477 240.569 C 182.960 240.907,183.545 241.766,183.777 242.478 C 184.473 244.608,186.399 245.600,189.836 245.600 C 191.440 245.600,192.847 245.753,192.963 245.939 C 193.245 246.396,191.715 248.000,190.998 248.000 C 190.685 248.000,189.837 248.510,189.114 249.133 C 188.391 249.755,187.482 250.381,187.094 250.522 C 185.749 251.012,185.600 252.675,185.600 267.225 L 185.600 281.598 184.258 283.099 C 181.087 286.645,181.150 292.261,184.380 293.989 C 185.930 294.819,212.614 294.358,213.486 293.487 C 214.927 292.047,214.753 285.188,213.236 283.637 L 212.000 282.372 212.000 263.108 L 212.000 243.843 213.041 242.340 C 213.614 241.514,214.514 240.555,215.041 240.210 C 216.399 239.320,216.429 236.300,215.088 235.421 C 214.156 234.810,191.530 234.239,185.215 234.667 M212.571 237.029 C 213.444 237.902,213.357 238.782,212.279 239.978 C 209.633 242.916,209.566 243.550,209.688 264.380 L 209.800 283.288 211.181 284.441 C 213.217 286.140,213.487 290.015,211.688 291.725 L 210.504 292.850 198.185 292.844 C 183.794 292.836,184.692 293.111,184.467 288.649 C 184.323 285.815,184.362 285.666,185.559 284.442 L 186.800 283.172 186.800 268.766 C 186.800 251.643,186.327 253.255,192.546 249.200 C 198.776 245.138,198.634 244.400,191.624 244.400 L 187.596 244.400 185.604 241.700 C 183.502 238.851,183.024 237.009,184.300 236.676 C 186.488 236.104,211.965 236.422,212.571 237.029 M95.104 292.691 C 93.092 292.987,92.800 293.975,92.800 300.502 C 92.800 307.398,93.206 308.909,95.294 309.781 C 96.021 310.085,96.946 310.699,97.350 311.144 C 97.753 311.590,98.596 312.067,99.223 312.205 C 99.850 312.343,100.796 312.796,101.326 313.213 C 101.856 313.630,103.052 314.142,103.984 314.352 C 104.915 314.561,106.027 315.108,106.454 315.566 C 106.882 316.025,107.719 316.401,108.316 316.402 C 108.912 316.402,110.480 316.942,111.800 317.600 C 113.120 318.258,114.741 318.798,115.403 318.798 C 116.065 318.799,117.438 319.243,118.455 319.784 C 119.598 320.392,121.351 320.875,123.051 321.048 C 124.755 321.222,126.192 321.617,126.832 322.089 C 127.547 322.616,128.963 322.953,131.444 323.185 C 133.776 323.404,135.595 323.819,136.661 324.374 C 137.905 325.023,139.446 325.307,143.081 325.560 C 146.547 325.801,148.161 326.087,148.943 326.600 C 149.821 327.175,151.346 327.361,157.122 327.597 C 162.494 327.816,164.531 328.047,165.497 328.547 C 167.542 329.604,174.841 329.987,193.100 329.994 C 202.395 329.997,210.000 330.153,210.000 330.339 C 210.000 332.369,159.205 333.404,155.000 331.460 C 153.795 330.903,151.573 330.601,146.000 330.236 C 140.252 329.859,138.364 329.596,137.543 329.058 C 136.827 328.588,135.088 328.248,132.143 328.002 C 129.247 327.760,127.310 327.386,126.329 326.878 C 125.501 326.449,123.513 325.994,121.785 325.837 C 119.659 325.644,118.374 325.309,117.615 324.748 C 116.944 324.252,115.463 323.806,113.800 323.600 C 112.157 323.396,110.655 322.947,110.003 322.465 C 109.409 322.027,108.041 321.544,106.962 321.392 C 105.883 321.240,104.370 320.706,103.600 320.205 C 102.830 319.703,101.499 319.189,100.643 319.062 C 99.786 318.936,98.706 318.481,98.243 318.052 C 97.779 317.623,96.654 317.073,95.741 316.831 C 94.829 316.589,93.990 316.151,93.878 315.858 C 93.765 315.564,92.830 315.088,91.800 314.800 C 90.770 314.512,89.840 314.048,89.733 313.769 C 89.626 313.490,88.877 312.997,88.069 312.674 C 87.261 312.350,86.257 311.706,85.838 311.243 C 85.419 310.779,84.848 310.400,84.569 310.400 C 84.290 310.400,83.504 309.931,82.824 309.358 C 79.988 306.972,78.800 309.146,78.800 316.721 C 78.800 323.998,78.921 324.418,81.879 327.406 C 83.292 328.833,84.713 330.000,85.037 330.000 C 85.360 330.000,85.732 330.278,85.862 330.619 C 85.993 330.959,86.965 331.675,88.022 332.211 C 89.079 332.747,90.048 333.354,90.176 333.562 C 90.304 333.769,90.925 334.052,91.555 334.190 C 92.186 334.329,93.289 334.875,94.007 335.405 C 94.724 335.934,96.111 336.488,97.087 336.634 C 98.063 336.780,99.180 337.242,99.569 337.659 C 99.984 338.105,101.287 338.596,102.723 338.849 C 104.069 339.086,105.549 339.609,106.013 340.011 C 106.547 340.474,107.836 340.843,109.528 341.017 C 111.368 341.206,112.475 341.543,113.084 342.100 C 113.744 342.704,114.807 342.986,117.288 343.212 C 119.498 343.413,121.083 343.794,122.025 344.350 C 123.060 344.961,124.600 345.286,127.753 345.560 C 130.891 345.832,132.273 346.123,132.832 346.629 C 133.449 347.187,134.787 347.388,139.659 347.654 C 144.037 347.893,145.983 348.159,146.674 348.612 C 147.968 349.460,153.003 349.990,160.000 350.014 C 163.190 350.026,166.610 350.213,167.600 350.431 C 173.859 351.810,177.431 351.983,199.600 351.981 C 221.409 351.979,228.744 351.686,230.502 350.745 C 231.056 350.449,234.963 350.150,240.946 349.946 C 249.380 349.659,250.705 349.524,252.212 348.794 C 253.540 348.151,255.148 347.897,259.459 347.648 C 263.558 347.411,265.364 347.138,266.400 346.599 C 267.274 346.144,269.293 345.743,271.773 345.531 C 274.668 345.285,276.133 344.961,277.173 344.340 C 278.139 343.762,279.687 343.385,281.963 343.172 C 284.256 342.957,285.657 342.614,286.363 342.093 C 286.941 341.668,288.458 341.206,289.791 341.051 C 291.106 340.897,292.807 340.403,293.572 339.952 C 294.336 339.501,295.943 338.972,297.143 338.777 C 298.352 338.580,299.701 338.069,300.167 337.631 C 300.630 337.196,301.789 336.715,302.742 336.563 C 303.695 336.410,304.773 335.969,305.138 335.582 C 305.502 335.195,306.536 334.681,307.436 334.441 C 308.337 334.200,309.396 333.646,309.791 333.210 C 310.187 332.773,311.125 332.300,311.878 332.159 C 312.679 332.009,313.504 331.508,313.869 330.951 C 314.212 330.428,314.733 330.000,315.027 330.000 C 315.321 330.000,316.786 328.841,318.281 327.425 L 321.000 324.850 321.127 315.325 C 321.321 300.763,322.139 301.727,308.600 300.556 C 305.371 300.277,304.400 299.640,304.400 297.798 C 304.400 293.419,301.944 291.299,299.537 293.600 C 298.846 294.260,298.066 294.800,297.803 294.800 C 297.539 294.800,296.993 295.166,296.588 295.613 C 296.184 296.060,295.085 296.619,294.147 296.855 C 293.208 297.091,291.856 297.716,291.143 298.242 C 290.331 298.841,289.297 299.200,288.382 299.200 C 287.577 299.200,286.127 299.621,285.160 300.135 C 284.100 300.698,282.292 301.183,280.615 301.355 C 278.931 301.527,277.304 301.965,276.500 302.462 C 275.520 303.067,274.083 303.371,271.056 303.614 C 268.210 303.841,266.520 304.182,265.571 304.719 C 264.529 305.308,262.781 305.604,258.281 305.951 C 254.275 306.260,252.057 306.607,251.420 307.024 C 250.706 307.492,248.511 307.731,242.332 308.013 C 236.322 308.288,233.349 308.604,230.993 309.221 C 226.023 310.521,171.970 310.537,167.000 309.240 C 164.663 308.630,161.621 308.301,155.716 308.022 C 149.847 307.745,147.382 307.480,146.716 307.055 C 145.604 306.345,140.938 305.600,137.607 305.600 C 135.918 305.600,134.661 305.342,133.519 304.759 C 132.394 304.185,130.589 303.806,127.845 303.568 C 124.907 303.312,123.540 303.010,122.780 302.448 C 122.125 301.964,120.711 301.574,118.969 301.398 C 117.394 301.239,115.598 300.772,114.803 300.315 C 114.034 299.873,112.234 299.347,110.803 299.146 C 109.010 298.894,108.013 298.539,107.600 298.006 C 107.246 297.550,106.261 297.121,105.200 296.964 C 104.210 296.816,103.040 296.384,102.600 296.003 C 102.160 295.622,101.170 295.101,100.400 294.845 C 99.630 294.588,98.730 294.043,98.400 293.632 C 97.704 292.765,96.649 292.464,95.104 292.691 M302.010 295.826 C 302.224 296.390,302.400 297.706,302.400 298.750 C 302.400 302.035,302.583 302.124,309.905 302.408 L 316.304 302.656 317.910 303.929 C 319.823 305.444,319.855 305.620,319.958 315.235 C 320.051 323.904,319.082 325.725,312.289 329.644 C 310.700 330.561,308.950 331.617,308.400 331.992 C 307.850 332.367,306.680 332.904,305.800 333.185 C 304.920 333.467,303.660 334.019,303.000 334.412 C 302.340 334.805,300.990 335.338,300.000 335.596 C 299.010 335.854,297.818 336.310,297.351 336.608 C 296.884 336.907,295.362 337.447,293.969 337.808 C 292.575 338.169,290.970 338.705,290.401 339.000 C 289.832 339.294,288.224 339.742,286.828 339.995 C 285.432 340.248,283.454 340.784,282.434 341.187 C 281.413 341.589,279.166 342.132,277.441 342.394 C 275.716 342.655,273.610 343.114,272.761 343.414 C 271.912 343.713,270.089 344.076,268.709 344.219 C 267.329 344.363,264.310 344.900,262.000 345.413 C 259.690 345.926,255.550 346.536,252.800 346.768 C 250.050 347.000,246.270 347.466,244.400 347.802 C 230.033 350.384,168.850 350.374,155.000 347.786 C 153.240 347.458,149.460 347.004,146.600 346.779 C 143.740 346.553,140.050 346.026,138.400 345.608 C 136.750 345.189,133.780 344.651,131.800 344.411 C 129.820 344.171,127.390 343.717,126.400 343.404 C 125.410 343.090,123.038 342.567,121.129 342.242 C 119.219 341.916,117.123 341.374,116.471 341.036 C 115.818 340.699,114.500 340.317,113.542 340.187 C 112.584 340.057,110.630 339.527,109.200 339.009 C 107.770 338.492,105.520 337.713,104.200 337.279 C 99.309 335.671,96.016 334.318,92.600 332.513 C 91.940 332.165,90.860 331.606,90.200 331.273 C 88.288 330.306,84.706 327.774,83.400 326.466 C 80.422 323.485,80.290 323.140,80.084 317.772 C 79.810 310.667,80.424 309.867,84.200 312.411 C 87.483 314.623,89.748 316.000,90.107 316.000 C 90.310 316.000,90.954 316.329,91.538 316.730 C 92.122 317.132,93.230 317.705,94.000 318.003 C 94.770 318.302,95.829 318.873,96.354 319.273 C 96.879 319.673,97.617 320.000,97.994 320.000 C 98.372 320.000,99.526 320.450,100.560 320.999 C 101.594 321.549,103.285 322.201,104.320 322.449 C 105.354 322.697,106.586 323.139,107.058 323.431 C 107.529 323.724,109.111 324.240,110.573 324.579 C 112.035 324.918,113.727 325.452,114.333 325.765 C 114.938 326.078,116.540 326.535,117.893 326.781 C 119.245 327.026,121.318 327.559,122.498 327.965 C 123.679 328.371,125.625 328.827,126.823 328.978 C 128.020 329.128,130.381 329.598,132.069 330.021 C 133.758 330.444,136.908 330.983,139.069 331.219 C 141.231 331.456,144.260 331.909,145.800 332.226 C 153.186 333.748,179.908 335.100,190.065 334.465 C 194.319 334.200,200.950 333.796,204.800 333.569 C 208.770 333.335,213.209 332.827,215.056 332.396 C 216.846 331.978,219.743 331.457,221.492 331.237 C 223.242 331.018,225.557 330.492,226.637 330.068 C 227.716 329.644,229.545 329.168,230.700 329.011 C 232.991 328.699,233.529 328.279,232.785 327.382 C 232.155 326.623,228.617 326.631,221.800 327.408 C 207.926 328.990,190.094 329.002,173.398 327.440 C 169.879 327.111,164.660 326.654,161.800 326.423 C 158.940 326.193,155.610 325.745,154.400 325.429 C 153.190 325.113,150.310 324.667,148.000 324.439 C 145.690 324.211,142.450 323.677,140.800 323.252 C 139.150 322.828,136.723 322.354,135.407 322.200 C 134.091 322.045,132.111 321.585,131.007 321.176 C 129.903 320.767,127.762 320.239,126.250 320.001 C 124.737 319.763,122.989 319.305,122.366 318.982 C 121.742 318.660,120.077 318.128,118.666 317.801 C 117.255 317.474,115.313 316.848,114.350 316.412 C 113.388 315.975,112.240 315.608,111.800 315.596 C 111.360 315.584,109.925 315.041,108.610 314.387 C 107.296 313.734,105.943 313.200,105.603 313.200 C 105.264 313.200,104.359 312.775,103.593 312.256 C 102.827 311.738,101.750 311.172,101.200 311.000 C 100.650 310.828,99.573 310.262,98.807 309.744 C 98.041 309.225,97.177 308.800,96.887 308.800 C 95.794 308.800,95.200 306.157,95.200 301.289 C 95.200 294.771,95.928 293.998,99.675 296.541 C 100.454 297.070,101.776 297.728,102.613 298.004 C 103.450 298.281,104.690 298.823,105.367 299.209 C 106.045 299.595,107.312 300.036,108.181 300.189 C 109.051 300.342,110.411 300.797,111.203 301.202 C 111.995 301.606,113.802 302.147,115.219 302.403 C 116.635 302.660,118.397 303.122,119.133 303.430 C 119.869 303.737,121.670 304.188,123.136 304.431 C 124.601 304.674,127.018 305.225,128.506 305.655 C 129.994 306.085,132.779 306.615,134.696 306.833 C 136.613 307.051,139.535 307.573,141.190 307.994 C 142.846 308.415,146.540 308.958,149.400 309.202 C 152.260 309.445,155.320 309.801,156.200 309.992 C 161.550 311.155,193.366 312.621,204.800 312.231 C 221.815 311.652,236.482 310.788,241.805 310.051 C 244.882 309.624,248.930 309.158,250.800 309.015 C 252.670 308.872,255.720 308.400,257.578 307.966 C 259.436 307.533,262.586 307.004,264.578 306.791 C 266.570 306.578,269.280 306.064,270.600 305.649 C 271.920 305.234,273.990 304.772,275.200 304.622 C 276.410 304.473,278.840 303.933,280.600 303.423 C 282.360 302.913,284.520 302.305,285.400 302.072 C 290.864 300.624,296.097 298.368,299.200 296.122 C 301.382 294.544,301.517 294.529,302.010 295.826 " stroke="none" fill="#6cacdc" fill-rule="evenodd"></path></g></svg>