<?xml version="1.0" standalone="no"?>
<!DOCTYPE svg PUBLIC "-//W3C//DTD SVG 20010904//EN"
 "http://www.w3.org/TR/2001/REC-SVG-20010904/DTD/svg10.dtd">
<svg version="1.0" xmlns="http://www.w3.org/2000/svg"
 width="6095.000000pt" height="4878.000000pt" viewBox="0 0 6095.000000 4878.000000"
 preserveAspectRatio="xMidYMid meet">

<g transform="translate(0.000000,4878.000000) scale(0.100000,-0.100000)"
fill="#000000" stroke="none">
<path d="M30245 48774 c-678 -55 -1246 -205 -1775 -470 -470 -236 -837 -508
-1240 -921 -797 -815 -1228 -1764 -1310 -2878 -20 -278 -10 -669 25 -962 8
-67 15 -135 15 -152 0 -67 4 -65 -975 -485 -506 -216 -3521 -1513 -6700 -2881
-6731 -2897 -6047 -2604 -6101 -2612 -64 -8 -96 17 -259 206 -315 365 -638
653 -1007 895 -990 649 -2207 890 -3393 671 -1484 -275 -2756 -1269 -3373
-2636 -437 -966 -526 -2029 -262 -3106 274 -1112 925 -2020 1930 -2690 837
-557 1751 -820 2692 -773 433 21 810 86 1237 212 203 59 251 67 285 44 14 -8
181 -235 372 -503 500 -701 1872 -2619 2843 -3973 459 -641 846 -1185 860
-1209 21 -37 23 -49 15 -80 -6 -20 -133 -208 -296 -436 -157 -220 -469 -661
-695 -980 -225 -319 -765 -1082 -1199 -1695 -434 -613 -1037 -1465 -1339
-1893 -367 -520 -560 -785 -581 -798 -45 -28 -74 -24 -224 26 -301 102 -617
168 -1005 211 -196 21 -686 30 -882 15 -672 -51 -1276 -234 -1833 -554 -515
-296 -1086 -791 -1472 -1277 -534 -673 -841 -1471 -909 -2360 -15 -196 -6
-713 15 -905 23 -203 53 -400 87 -560 329 -1566 1489 -2855 3039 -3375 765
-257 1559 -307 2368 -149 1060 207 1913 700 2634 1525 109 124 147 150 212
141 23 -4 403 -155 846 -338 1710 -704 10778 -4428 12080 -4961 912 -374 904
-370 937 -400 35 -32 36 -67 9 -215 -101 -543 -106 -1092 -15 -1628 184 -1087
679 -1979 1495 -2694 762 -668 1587 -1041 2549 -1153 171 -20 761 -17 950 5
981 115 1827 448 2495 984 165 132 437 396 575 558 240 282 436 574 616 920
333 641 485 1204 528 1957 7 129 14 177 29 212 15 33 125 151 419 453 511 524
1572 1617 3708 3823 1536 1585 5629 5805 8739 9010 638 657 1371 1413 1629
1680 630 651 646 667 691 675 33 7 60 -4 254 -98 332 -161 589 -255 909 -335
428 -107 801 -148 1268 -139 491 9 894 77 1345 227 697 232 1299 601 1816
1115 737 733 1184 1642 1325 2695 26 198 37 687 20 906 -41 523 -169 1075
-356 1539 -431 1067 -1256 1894 -2390 2396 -1100 486 -2169 547 -3275 187
-301 -98 -689 -265 -850 -366 -139 -88 -166 -98 -237 -94 -30 3 -85 52 -144
130 -27 36 -365 393 -752 796 -4116 4282 -6169 6416 -7257 7546 -712 740
-1963 2040 -2780 2890 -1727 1797 -2830 2944 -3504 3643 -264 274 -491 514
-505 534 l-26 36 -2 251 c-7 1016 -336 1996 -939 2796 -315 418 -720 795
-1161 1084 -601 393 -1276 634 -2018 721 -134 16 -696 29 -820 19z m4940
-6084 c508 -456 593 -542 2410 -2435 1119 -1165 4325 -4500 5605 -5830 1846
-1918 3964 -4123 5495 -5720 253 -264 539 -561 636 -660 97 -100 179 -191 183
-202 11 -33 -15 -72 -96 -148 -341 -318 -678 -759 -883 -1153 -41 -80 -74
-112 -113 -112 -14 0 -329 101 -701 224 -372 124 -1340 444 -2151 711 -2015
665 -5762 1903 -7375 2437 -731 242 -1729 572 -2217 733 -488 161 -901 301
-919 312 -59 34 -69 65 -85 261 -41 510 -121 923 -260 1340 -219 655 -555
1201 -1031 1677 -579 580 -1400 1054 -2178 1260 -552 146 -1146 184 -1730 109
-1043 -133 -2025 -619 -2745 -1360 -654 -672 -1084 -1505 -1245 -2409 -28
-159 -45 -198 -86 -203 -14 -2 -405 87 -869 197 -465 110 -1322 312 -1905 450
-1356 320 -2015 478 -2021 484 -4 3 5986 8469 6032 8526 1 2 101 -96 221 -216
456 -459 866 -763 1363 -1012 460 -230 938 -370 1485 -433 148 -17 730 -17
895 0 650 68 1263 238 1780 493 430 212 764 447 1094 769 395 386 681 788 942
1325 95 195 206 465 263 637 30 89 34 97 50 85 9 -6 80 -68 156 -137z m-9001
-185 c13 -14 36 -60 51 -103 15 -42 74 -175 131 -294 l104 -218 -27 -42 c-15
-24 -856 -1213 -1869 -2643 -2547 -3598 -3435 -4853 -3977 -5620 -298 -421
-480 -670 -503 -687 -29 -22 -48 -28 -88 -28 -33 0 -399 82 -981 220 -1221
290 -3927 927 -5010 1179 -473 111 -879 210 -903 221 -79 37 -82 49 -101 381
-34 564 -162 1119 -368 1589 -87 198 -91 229 -34 269 16 12 615 272 1332 580
717 307 1970 845 2784 1196 814 350 2169 933 3010 1295 2757 1185 3513 1510
4880 2100 743 321 1375 593 1405 606 76 32 134 32 164 -1z m-12809 -8882
c1522 -364 3272 -778 5065 -1198 1022 -239 1117 -262 1125 -275 5 -8 -589
-852 -1956 -2780 -201 -283 -423 -597 -493 -698 -70 -100 -136 -187 -146 -192
-30 -16 -70 -12 -103 12 -17 12 -398 319 -846 682 -879 710 -2078 1677 -3030
2443 -327 263 -604 490 -615 506 -34 46 -25 86 52 220 199 347 342 703 432
1079 57 234 65 257 104 274 39 17 34 17 411 -73z m8703 -2058 c895 -211 2003
-472 2462 -580 1089 -255 1078 -252 1110 -271 48 -29 58 -60 75 -235 57 -603
188 -1092 429 -1603 31 -65 56 -130 56 -144 0 -16 -12 -35 -32 -53 -18 -16
-811 -639 -1763 -1385 -1491 -1170 -2027 -1591 -2864 -2251 -172 -136 -202
-150 -258 -117 -18 10 -180 138 -360 284 -854 691 -1758 1420 -2478 1998 -434
349 -805 650 -823 670 -31 34 -33 41 -30 88 4 45 14 65 74 150 39 55 238 335
444 624 551 774 2213 3120 2235 3155 24 39 45 54 73 55 13 0 756 -173 1650
-385z m-10126 -108 c381 -310 3904 -3153 4305 -3475 111 -88 204 -170 207
-180 4 -11 2 -30 -3 -43 -5 -14 -155 -229 -333 -479 -178 -250 -582 -819 -898
-1265 -316 -445 -579 -813 -584 -817 -6 -5 -16 -7 -23 -5 -6 1 -59 67 -116
147 -57 80 -806 1126 -1663 2325 -858 1199 -1676 2341 -1817 2538 -262 365
-276 389 -244 429 6 9 93 70 192 136 250 167 417 304 651 534 186 183 204 198
237 198 28 0 49 -10 89 -43z m23056 -1423 c20 -9 341 -116 712 -239 371 -122
1609 -531 2750 -908 2817 -930 5578 -1841 7465 -2462 2142 -704 2115 -695
2157 -716 45 -23 68 -54 68 -94 0 -17 -16 -98 -35 -180 -197 -842 -170 -1663
81 -2445 46 -143 49 -207 14 -245 -14 -15 -36 -33 -50 -40 -14 -7 -272 -96
-575 -198 -1316 -443 -5722 -1942 -11748 -3996 -340 -116 -632 -211 -648 -211
-19 0 -33 8 -43 23 -8 12 -29 103 -46 202 -244 1414 -956 2477 -2136 3191
-192 116 -559 300 -744 373 -439 174 -862 272 -1337 312 -184 15 -691 6 -863
-15 -836 -106 -1592 -405 -2245 -891 -297 -220 -650 -557 -859 -817 -78 -99
-126 -150 -143 -154 -31 -8 -6 -26 -448 331 -198 160 -781 630 -1295 1045
-1498 1207 -2982 2405 -3025 2443 -26 23 -37 39 -30 45 30 29 4665 3662 4672
3661 4 0 45 -46 90 -102 243 -299 570 -610 886 -840 614 -448 1440 -758 2272
-853 187 -22 652 -25 835 -6 578 60 1111 213 1655 476 512 248 926 544 1305
932 380 390 670 831 895 1364 83 197 196 545 255 785 29 116 59 218 68 228 19
21 42 22 90 1z m-16108 -4184 c971 -782 1775 -1432 1787 -1444 l23 -21 -1172
-920 c-645 -506 -1400 -1100 -1678 -1319 -665 -526 -625 -496 -665 -496 -21 0
-43 8 -59 23 -13 12 -316 432 -673 932 -357 501 -790 1106 -963 1345 -172 239
-322 449 -332 465 -22 37 -23 106 -2 148 9 17 204 294 433 617 229 322 661
930 960 1353 483 681 546 766 560 753 9 -7 810 -653 1781 -1436z m2486 -2009
c17 -10 197 -153 400 -318 344 -278 603 -488 2387 -1925 369 -298 998 -806
1397 -1128 399 -322 740 -596 758 -609 42 -29 41 -49 -9 -157 -159 -344 -277
-734 -343 -1134 -35 -212 -49 -249 -104 -286 -18 -12 -83 -34 -145 -48 -61
-14 -989 -228 -2062 -475 -1072 -247 -2137 -493 -2365 -545 -228 -52 -491
-113 -583 -136 -180 -43 -221 -47 -263 -28 -18 8 -285 375 -837 1148 -446 624
-1051 1470 -1346 1880 -294 410 -552 769 -573 799 -36 51 -47 93 -30 117 6 10
2609 2055 3197 2513 138 107 284 223 327 258 118 98 141 106 194 74z m-6704
-88 c14 -16 238 -327 499 -693 260 -366 673 -944 917 -1285 244 -341 447 -626
449 -633 3 -7 -12 -29 -33 -47 -48 -43 -723 -574 -3184 -2506 -410 -322 -896
-704 -1080 -850 -184 -145 -350 -275 -367 -287 -37 -26 -89 -38 -127 -28 -13
3 -93 76 -178 162 -234 239 -426 399 -674 560 -65 43 -129 86 -141 97 -31 27
-29 64 5 118 16 24 284 404 597 844 785 1105 1878 2648 2588 3655 328 465 610
862 627 883 37 45 66 48 102 10z m33941 -1764 c15 -11 82 -104 150 -207 213
-322 420 -564 697 -818 84 -77 158 -150 163 -161 6 -14 5 -29 -5 -46 -7 -14
-150 -167 -317 -339 -168 -172 -1176 -1213 -2240 -2313 -2976 -3075 -3713
-3835 -4811 -4965 -1503 -1548 -1788 -1842 -3760 -3880 -992 -1026 -1966
-2031 -2165 -2235 -198 -203 -532 -548 -743 -765 -427 -440 -582 -593 -590
-586 -2 3 -20 65 -38 138 -211 824 -598 1501 -1209 2113 -701 702 -1515 1128
-2455 1284 -678 113 -1378 87 -2015 -74 -219 -55 -332 -92 -535 -172 -544
-215 -1037 -540 -1500 -989 -148 -144 -170 -160 -198 -145 -11 6 -125 158
-254 338 -1167 1629 -5772 8070 -5788 8095 -30 49 -26 64 23 82 23 9 798 191
1722 405 924 215 2010 467 2414 561 404 93 735 169 736 168 1 -2 9 -77 19
-168 52 -487 156 -917 312 -1283 252 -594 605 -1133 1013 -1551 497 -507 1048
-850 1736 -1082 913 -306 1883 -356 2727 -140 654 168 1245 479 1819 957 145
121 493 465 601 594 480 576 793 1229 943 1969 13 67 38 218 55 336 17 118 35
232 41 253 14 54 60 100 128 131 33 14 2801 960 6153 2102 5780 1969 6637
2261 6943 2368 146 51 190 56 228 25z m-31566 -1551 c46 -50 2553 -3568 2558
-3590 6 -23 6 -23 -1372 -341 -1773 -410 -3246 -752 -4384 -1016 -498 -116
-923 -211 -943 -211 -62 0 -77 24 -125 214 -103 406 -245 760 -434 1084 -79
134 -82 145 -66 183 8 22 234 204 818 662 443 347 1468 1151 2276 1786 809
636 1498 1177 1533 1203 71 54 107 61 139 26z m3068 -4337 c22 -10 54 -34 71
-52 17 -19 720 -997 1561 -2174 841 -1177 2247 -3142 3124 -4367 877 -1224
1609 -2248 1627 -2274 53 -77 53 -78 -36 -226 -104 -173 -172 -303 -212 -405
-39 -99 -59 -123 -105 -123 -22 0 -422 160 -1137 454 -1079 444 -4758 1955
-8198 3366 -949 389 -2305 945 -3015 1235 -709 290 -1305 539 -1322 552 -50
37 -45 72 31 233 274 574 416 1191 432 1880 3 124 7 235 10 248 3 13 18 28 37
37 17 8 374 93 792 189 2028 467 5238 1212 6015 1396 228 54 267 58 325 31z"/>
</g>
</svg>
